<?xml version="1.0" standalone="no"?>
<!DOCTYPE svg PUBLIC "-//W3C//DTD SVG 20010904//EN"
 "http://www.w3.org/TR/2001/REC-SVG-20010904/DTD/svg10.dtd">
<svg version="1.0" xmlns="http://www.w3.org/2000/svg"
 width="701.000000pt" height="318.000000pt" viewBox="0 0 701.000000 318.000000"
 preserveAspectRatio="xMidYMid meet">

<g transform="translate(0.000000,318.000000) scale(0.100000,-0.100000)"
fill="#000000" stroke="none">
<path d="M1139 2041 c-30 -31 -31 -35 -26 -91 5 -55 4 -59 -19 -64 -45 -12
-92 -99 -118 -219 -6 -24 -9 -26 -26 -17 -38 20 -43 47 -20 95 20 42 52 75
130 138 l35 28 -53 -26 c-97 -48 -172 -134 -172 -198 0 -34 45 -85 83 -95 30
-8 32 -12 38 -61 8 -57 39 -111 101 -169 43 -41 45 -47 19 -62 -53 -28 -104
40 -126 168 -7 40 -16 76 -19 79 -3 4 -6 -23 -6 -59 0 -190 111 -298 213 -208
29 25 35 27 48 15 33 -33 182 -35 241 -4 47 25 68 -28 23 -57 -36 -24 -136
-14 -210 20 -32 14 -60 25 -62 23 -8 -9 79 -58 136 -77 142 -47 224 -2 207
115 -5 27 -3 45 3 45 5 0 24 12 42 27 38 33 76 111 85 176 7 49 17 56 47 33
50 -38 -17 -151 -143 -238 -54 -37 16 -4 81 38 73 48 117 103 125 156 5 29 1
41 -25 70 -17 20 -44 38 -61 41 -27 6 -30 11 -30 42 0 50 -33 109 -97 177
l-55 57 26 12 c36 17 70 0 94 -48 22 -42 42 -127 42 -176 1 -28 2 -30 12 -13
14 25 3 143 -18 196 -18 45 -75 100 -104 100 -30 0 -64 -16 -90 -43 l-24 -25
-27 20 c-49 37 -107 35 -257 -8 -22 -6 -23 -4 -20 27 3 30 8 36 42 47 47 15
107 5 201 -33 52 -21 57 -22 35 -5 -56 45 -134 75 -202 78 -64 4 -69 3 -99
-27z m277 -112 c29 -24 14 -71 -44 -131 l-35 -37 -44 31 c-46 33 -113 113
-113 134 0 32 198 35 236 3z m189 -114 c33 -56 41 -107 20 -128 -19 -20 -95
-23 -143 -6 -30 10 -32 13 -26 52 9 65 32 140 50 166 l17 24 29 -34 c16 -19
39 -52 53 -74z m-429 -4 c32 -48 47 -107 30 -119 -25 -19 -101 -43 -157 -49
-52 -5 -59 -4 -59 12 0 32 60 143 91 169 42 36 64 33 95 -13z m204 -187 c0
-32 -38 -51 -69 -35 -29 16 -29 65 2 78 30 14 67 -10 67 -43z m295 -41 c-14
-59 -70 -145 -107 -167 l-37 -21 -30 35 c-26 30 -57 117 -46 128 15 16 139 51
179 51 48 1 48 1 41 -26z m-486 -15 c22 -8 23 -12 18 -66 -5 -64 -43 -162 -61
-162 -7 0 -28 22 -49 48 -60 80 -84 156 -54 180 25 21 90 21 146 0z m196 -118
c63 -49 113 -116 98 -131 -6 -6 -46 -13 -89 -16 -100 -7 -154 12 -154 52 0 15
5 36 11 48 12 22 69 87 78 87 2 0 28 -18 56 -40z"/>
<path d="M2205 1896 c-16 -8 -43 -28 -60 -45 -25 -27 -30 -41 -33 -97 -4 -65
-4 -65 36 -103 22 -21 62 -47 89 -56 26 -10 72 -28 101 -41 77 -34 89 -83 30
-125 -40 -29 -127 -23 -162 10 -22 21 -28 22 -60 11 -44 -14 -45 -27 -3 -68
86 -83 229 -80 311 6 37 39 47 113 22 161 -21 41 -84 85 -149 107 -74 24 -105
41 -122 68 -48 73 85 136 171 81 19 -12 25 -11 55 15 33 28 34 29 14 45 -55
45 -174 60 -240 31z"/>
<path d="M2570 1614 l0 -295 43 3 42 3 3 293 2 292 -45 0 -45 0 0 -296z"/>
<path d="M2752 1618 l3 -293 107 1 c100 1 112 3 173 33 196 97 221 355 47 488
-59 45 -128 63 -239 63 l-93 0 2 -292z m249 179 c117 -62 144 -214 56 -314
-41 -47 -99 -73 -164 -73 l-53 0 0 205 0 205 58 0 c42 0 71 -7 103 -23z"/>
<path d="M3272 1618 l3 -293 148 -3 147 -3 0 46 0 45 -105 0 -105 0 0 80 0 79
83 3 82 3 3 43 3 42 -85 0 -86 0 0 80 0 80 105 0 105 0 0 45 0 45 -150 0 -150
0 2 -292z"/>
<path d="M3642 1618 l3 -293 52 -3 52 -3 147 248 c80 136 159 269 175 296 l29
47 -53 0 -52 0 -130 -222 -130 -221 -3 221 -2 222 -45 0 -45 0 2 -292z"/>
<path d="M4130 1865 l0 -45 65 0 65 0 0 -251 0 -250 43 3 42 3 3 248 2 247 60
0 60 0 0 45 0 45 -170 0 -170 0 0 -45z"/>
<path d="M4552 1618 l3 -293 148 -3 147 -3 0 46 0 45 -105 0 -105 0 0 80 0 80
80 0 80 0 0 45 0 45 -80 0 -80 0 0 80 0 80 105 0 105 0 0 45 0 45 -150 0 -150
0 2 -292z"/>
<path d="M5110 1901 c-74 -23 -146 -84 -183 -156 -28 -56 -34 -158 -13 -223
24 -70 84 -135 161 -173 59 -29 71 -31 134 -27 37 3 73 8 80 12 6 4 11 28 11
53 0 39 -2 44 -17 37 -10 -4 -45 -10 -78 -12 -49 -3 -68 1 -105 21 -119 63
-147 222 -57 323 54 62 122 81 220 61 l37 -8 0 44 c0 38 -3 46 -22 51 -31 8
-137 6 -168 -3z"/>
<path d="M5372 1618 l3 -293 43 -3 42 -3 0 125 0 126 120 0 119 0 3 -122 3
-123 43 -3 42 -3 0 295 0 296 -45 0 -45 0 0 -125 0 -125 -120 0 -120 0 0 125
0 125 -45 0 -45 0 2 -292z"/>
</g>
</svg>
